# xmcd
#
# Track frame offsets:
#	150
#	15162
#	26930
#	39662
#	51262
#	63305
#	73965
#	86520
#	98885
#	111630
#	123162
#	137640
#	150047
#	164380
#	174960
#	184712
#	197185
#	210212
#	219717
#	232182
#	243997
#	257982
#	275920
#	287835
#	298690
#	309597
#	325200
#	337667
#
# Disc length: 4672 seconds
#
# Revision: 1
# Processed by: cddbd v1.4PL0 Copyright (c) Steve Scherf et al.
# Submitted via: MusicWizard 6.0.2
#
DISCID=a2123e1c
DTITLE=Dean Martin - Lay Some Happiness On Me   Vol. 2
DYEAR=1900
DGENRE=Vocal
TTITLE0=(Open Up The Door) Let The Good Times In
TTITLE1=Pride
TTITLE2=You've Still Got A Place In My Heart
TTITLE3=Sweet, Sweet Lovable You
TTITLE4=Think About Me
TTITLE5=Lay Some Happiness On Me
TTITLE6=He's Got You
TTITLE7=If I Ever Get Back To Georgia
TTITLE8=Little Ole Wine Drinker, Me
TTITLE9=Turn To Me
TTITLE10=Release Me
TTITLE11=I Can't Help Remembering You
TTITLE12=The Green Green Grass Of Home
TTITLE13=A Place In The Shade
TTITLE14=Wallpaper Roses
TTITLE15=Things
TTITLE16=You've Still Got A Place In My Heart
TTITLE17=Five Card Stud
TTITLE18=By The Time I Get To Phoenix
TTITLE19=Gentle On My Mind
TTITLE20=Rainbows Are Back In Style
TTITLE21=Honey
TTITLE22=That's When I See The Blues
TTITLE23=Welcome To My Heart
TTITLE24=Drowning In My Tears
TTITLE25=Not Enough Indians
TTITLE26=That Old Time Feelin'
TTITLE27=April Again
EXTD=
EXTT0=
EXTT1=
EXTT2=
EXTT3=
EXTT4=
EXTT5=
EXTT6=
EXTT7=
EXTT8=
EXTT9=
EXTT10=
EXTT11=
EXTT12=
EXTT13=
EXTT14=
EXTT15=
EXTT16=
EXTT17=
EXTT18=
EXTT19=
EXTT20=
EXTT21=
EXTT22=
EXTT23=
EXTT24=
EXTT25=
EXTT26=
EXTT27=
PLAYORDER=
